<mxfile host="app.diagrams.net" modified="2023-06-25T06:46:55.273Z" agent="Mozilla/5.0 (Macintosh; Intel Mac OS X 10_15_7) AppleWebKit/537.36 (KHTML, like Gecko) Chrome/113.0.0.0 Safari/537.36 Edg/113.0.1774.57" etag="--zuTc8ZELQ3unmyWARz" version="21.5.0" type="github">
  <diagram id="C5RBs43oDa-KdzZeNtuy" name="Page-1">
    <mxGraphModel dx="1379" dy="771" grid="0" gridSize="10" guides="1" tooltips="1" connect="1" arrows="1" fold="1" page="1" pageScale="1" pageWidth="827" pageHeight="1169" math="0" shadow="0">
      <root>
        <mxCell id="WIyWlLk6GJQsqaUBKTNV-0" />
        <mxCell id="WIyWlLk6GJQsqaUBKTNV-1" parent="WIyWlLk6GJQsqaUBKTNV-0" />
        <mxCell id="vRGWxrCANK72iL_Xz8hH-12" value="" style="edgeStyle=orthogonalEdgeStyle;rounded=0;orthogonalLoop=1;jettySize=auto;html=1;entryX=0.5;entryY=0;entryDx=0;entryDy=0;" parent="WIyWlLk6GJQsqaUBKTNV-1" source="vRGWxrCANK72iL_Xz8hH-0" target="vRGWxrCANK72iL_Xz8hH-60" edge="1">
          <mxGeometry relative="1" as="geometry" />
        </mxCell>
        <mxCell id="vRGWxrCANK72iL_Xz8hH-0" value="开始" style="rounded=1;whiteSpace=wrap;html=1;" parent="WIyWlLk6GJQsqaUBKTNV-1" vertex="1">
          <mxGeometry x="354" y="30" width="96" height="40" as="geometry" />
        </mxCell>
        <mxCell id="vRGWxrCANK72iL_Xz8hH-14" style="edgeStyle=orthogonalEdgeStyle;rounded=0;orthogonalLoop=1;jettySize=auto;html=1;exitX=0;exitY=0.5;exitDx=0;exitDy=0;entryX=0.5;entryY=0;entryDx=0;entryDy=0;" parent="WIyWlLk6GJQsqaUBKTNV-1" source="vRGWxrCANK72iL_Xz8hH-60" target="vRGWxrCANK72iL_Xz8hH-13" edge="1">
          <mxGeometry relative="1" as="geometry">
            <mxPoint x="323" y="180" as="sourcePoint" />
          </mxGeometry>
        </mxCell>
        <mxCell id="llWgRNAV1-LR2kNwzqQN-17" value="是" style="edgeLabel;html=1;align=center;verticalAlign=middle;resizable=0;points=[];" vertex="1" connectable="0" parent="vRGWxrCANK72iL_Xz8hH-14">
          <mxGeometry x="-0.6466" y="3" relative="1" as="geometry">
            <mxPoint as="offset" />
          </mxGeometry>
        </mxCell>
        <mxCell id="vRGWxrCANK72iL_Xz8hH-24" value="" style="edgeStyle=orthogonalEdgeStyle;rounded=0;orthogonalLoop=1;jettySize=auto;html=1;entryX=0.5;entryY=0;entryDx=0;entryDy=0;exitX=0.5;exitY=1;exitDx=0;exitDy=0;" parent="WIyWlLk6GJQsqaUBKTNV-1" target="vRGWxrCANK72iL_Xz8hH-59" edge="1" source="vRGWxrCANK72iL_Xz8hH-60">
          <mxGeometry relative="1" as="geometry">
            <mxPoint x="402" y="230" as="sourcePoint" />
            <mxPoint x="402" y="270" as="targetPoint" />
          </mxGeometry>
        </mxCell>
        <mxCell id="llWgRNAV1-LR2kNwzqQN-2" value="否" style="edgeLabel;html=1;align=center;verticalAlign=middle;resizable=0;points=[];" vertex="1" connectable="0" parent="vRGWxrCANK72iL_Xz8hH-24">
          <mxGeometry x="0.0857" y="2" relative="1" as="geometry">
            <mxPoint as="offset" />
          </mxGeometry>
        </mxCell>
        <mxCell id="vRGWxrCANK72iL_Xz8hH-21" value="" style="edgeStyle=orthogonalEdgeStyle;rounded=0;orthogonalLoop=1;jettySize=auto;html=1;entryX=0.5;entryY=0;entryDx=0;entryDy=0;exitX=0.5;exitY=1;exitDx=0;exitDy=0;" parent="WIyWlLk6GJQsqaUBKTNV-1" source="vRGWxrCANK72iL_Xz8hH-25" target="vRGWxrCANK72iL_Xz8hH-22" edge="1">
          <mxGeometry relative="1" as="geometry">
            <mxPoint x="210" y="515" as="sourcePoint" />
            <mxPoint x="210" y="485" as="targetPoint" />
          </mxGeometry>
        </mxCell>
        <mxCell id="vRGWxrCANK72iL_Xz8hH-26" style="edgeStyle=orthogonalEdgeStyle;rounded=0;orthogonalLoop=1;jettySize=auto;html=1;exitX=0.5;exitY=1;exitDx=0;exitDy=0;entryX=0.5;entryY=0;entryDx=0;entryDy=0;" parent="WIyWlLk6GJQsqaUBKTNV-1" source="vRGWxrCANK72iL_Xz8hH-13" target="vRGWxrCANK72iL_Xz8hH-25" edge="1">
          <mxGeometry relative="1" as="geometry" />
        </mxCell>
        <mxCell id="vRGWxrCANK72iL_Xz8hH-13" value="读取内存数据" style="rounded=0;whiteSpace=wrap;html=1;" parent="WIyWlLk6GJQsqaUBKTNV-1" vertex="1">
          <mxGeometry x="150" y="270" width="120" height="60" as="geometry" />
        </mxCell>
        <mxCell id="vRGWxrCANK72iL_Xz8hH-22" value="结束" style="rounded=1;whiteSpace=wrap;html=1;" parent="WIyWlLk6GJQsqaUBKTNV-1" vertex="1">
          <mxGeometry x="354" y="688" width="96" height="40" as="geometry" />
        </mxCell>
        <mxCell id="vRGWxrCANK72iL_Xz8hH-30" value="是" style="edgeStyle=orthogonalEdgeStyle;rounded=0;orthogonalLoop=1;jettySize=auto;html=1;exitX=0.5;exitY=1;exitDx=0;exitDy=0;entryX=0.5;entryY=0;entryDx=0;entryDy=0;" parent="WIyWlLk6GJQsqaUBKTNV-1" source="vRGWxrCANK72iL_Xz8hH-59" target="vRGWxrCANK72iL_Xz8hH-29" edge="1">
          <mxGeometry relative="1" as="geometry">
            <mxPoint x="402" y="370" as="sourcePoint" />
          </mxGeometry>
        </mxCell>
        <mxCell id="vRGWxrCANK72iL_Xz8hH-25" value="渲染视图" style="rounded=0;whiteSpace=wrap;html=1;" parent="WIyWlLk6GJQsqaUBKTNV-1" vertex="1">
          <mxGeometry x="150" y="561" width="120" height="60" as="geometry" />
        </mxCell>
        <mxCell id="vRGWxrCANK72iL_Xz8hH-29" value="读取磁盘内容" style="rounded=0;whiteSpace=wrap;html=1;" parent="WIyWlLk6GJQsqaUBKTNV-1" vertex="1">
          <mxGeometry x="342" y="379" width="120" height="60" as="geometry" />
        </mxCell>
        <mxCell id="llWgRNAV1-LR2kNwzqQN-5" style="edgeStyle=orthogonalEdgeStyle;rounded=0;orthogonalLoop=1;jettySize=auto;html=1;exitX=0.5;exitY=1;exitDx=0;exitDy=0;entryX=0.5;entryY=0;entryDx=0;entryDy=0;" edge="1" parent="WIyWlLk6GJQsqaUBKTNV-1" source="vRGWxrCANK72iL_Xz8hH-32" target="vRGWxrCANK72iL_Xz8hH-44">
          <mxGeometry relative="1" as="geometry" />
        </mxCell>
        <mxCell id="vRGWxrCANK72iL_Xz8hH-32" value="写入内存" style="whiteSpace=wrap;html=1;rounded=0;" parent="WIyWlLk6GJQsqaUBKTNV-1" vertex="1">
          <mxGeometry x="543.5" y="470" width="120" height="60" as="geometry" />
        </mxCell>
        <mxCell id="llWgRNAV1-LR2kNwzqQN-14" style="edgeStyle=orthogonalEdgeStyle;rounded=0;orthogonalLoop=1;jettySize=auto;html=1;exitX=0.5;exitY=1;exitDx=0;exitDy=0;entryX=0.5;entryY=0;entryDx=0;entryDy=0;" edge="1" parent="WIyWlLk6GJQsqaUBKTNV-1" source="vRGWxrCANK72iL_Xz8hH-36" target="llWgRNAV1-LR2kNwzqQN-13">
          <mxGeometry relative="1" as="geometry" />
        </mxCell>
        <mxCell id="vRGWxrCANK72iL_Xz8hH-36" value="拉取设备端地图数据" style="rounded=0;whiteSpace=wrap;html=1;" parent="WIyWlLk6GJQsqaUBKTNV-1" vertex="1">
          <mxGeometry x="543.5" y="270" width="120" height="60" as="geometry" />
        </mxCell>
        <mxCell id="llWgRNAV1-LR2kNwzqQN-16" style="edgeStyle=orthogonalEdgeStyle;rounded=0;orthogonalLoop=1;jettySize=auto;html=1;exitX=0.5;exitY=1;exitDx=0;exitDy=0;entryX=0.5;entryY=0;entryDx=0;entryDy=0;" edge="1" parent="WIyWlLk6GJQsqaUBKTNV-1" source="vRGWxrCANK72iL_Xz8hH-44" target="vRGWxrCANK72iL_Xz8hH-22">
          <mxGeometry relative="1" as="geometry" />
        </mxCell>
        <mxCell id="vRGWxrCANK72iL_Xz8hH-44" value="写入磁盘" style="rounded=0;whiteSpace=wrap;html=1;" parent="WIyWlLk6GJQsqaUBKTNV-1" vertex="1">
          <mxGeometry x="543.5" y="561" width="120" height="60" as="geometry" />
        </mxCell>
        <mxCell id="llWgRNAV1-LR2kNwzqQN-0" style="edgeStyle=orthogonalEdgeStyle;rounded=0;orthogonalLoop=1;jettySize=auto;html=1;exitX=1;exitY=0.5;exitDx=0;exitDy=0;entryX=0;entryY=0.5;entryDx=0;entryDy=0;" edge="1" parent="WIyWlLk6GJQsqaUBKTNV-1" source="vRGWxrCANK72iL_Xz8hH-59" target="vRGWxrCANK72iL_Xz8hH-36">
          <mxGeometry relative="1" as="geometry" />
        </mxCell>
        <mxCell id="llWgRNAV1-LR2kNwzqQN-1" value="否" style="edgeLabel;html=1;align=center;verticalAlign=middle;resizable=0;points=[];" vertex="1" connectable="0" parent="llWgRNAV1-LR2kNwzqQN-0">
          <mxGeometry y="-1" relative="1" as="geometry">
            <mxPoint as="offset" />
          </mxGeometry>
        </mxCell>
        <mxCell id="vRGWxrCANK72iL_Xz8hH-59" value="检查磁盘是否包含数据" style="rhombus;whiteSpace=wrap;html=1;" parent="WIyWlLk6GJQsqaUBKTNV-1" vertex="1">
          <mxGeometry x="328" y="250" width="148" height="100" as="geometry" />
        </mxCell>
        <mxCell id="vRGWxrCANK72iL_Xz8hH-60" value="检查内存是否包含数据" style="rhombus;whiteSpace=wrap;html=1;" parent="WIyWlLk6GJQsqaUBKTNV-1" vertex="1">
          <mxGeometry x="327" y="110" width="150" height="90" as="geometry" />
        </mxCell>
        <mxCell id="llWgRNAV1-LR2kNwzqQN-9" style="edgeStyle=orthogonalEdgeStyle;rounded=0;orthogonalLoop=1;jettySize=auto;html=1;exitX=0.5;exitY=1;exitDx=0;exitDy=0;entryX=0.5;entryY=0;entryDx=0;entryDy=0;" edge="1" parent="WIyWlLk6GJQsqaUBKTNV-1" source="vRGWxrCANK72iL_Xz8hH-29" target="llWgRNAV1-LR2kNwzqQN-8">
          <mxGeometry relative="1" as="geometry">
            <mxPoint x="402" y="525" as="sourcePoint" />
          </mxGeometry>
        </mxCell>
        <mxCell id="llWgRNAV1-LR2kNwzqQN-11" style="edgeStyle=orthogonalEdgeStyle;rounded=0;orthogonalLoop=1;jettySize=auto;html=1;exitX=0.5;exitY=1;exitDx=0;exitDy=0;entryX=0.5;entryY=0;entryDx=0;entryDy=0;" edge="1" parent="WIyWlLk6GJQsqaUBKTNV-1" source="llWgRNAV1-LR2kNwzqQN-8" target="llWgRNAV1-LR2kNwzqQN-10">
          <mxGeometry relative="1" as="geometry" />
        </mxCell>
        <mxCell id="llWgRNAV1-LR2kNwzqQN-8" value="渲染视图" style="rounded=0;whiteSpace=wrap;html=1;" vertex="1" parent="WIyWlLk6GJQsqaUBKTNV-1">
          <mxGeometry x="342" y="470" width="120" height="60" as="geometry" />
        </mxCell>
        <mxCell id="llWgRNAV1-LR2kNwzqQN-12" style="edgeStyle=orthogonalEdgeStyle;rounded=0;orthogonalLoop=1;jettySize=auto;html=1;exitX=0.5;exitY=1;exitDx=0;exitDy=0;entryX=0.5;entryY=0;entryDx=0;entryDy=0;" edge="1" parent="WIyWlLk6GJQsqaUBKTNV-1" source="llWgRNAV1-LR2kNwzqQN-10" target="vRGWxrCANK72iL_Xz8hH-22">
          <mxGeometry relative="1" as="geometry" />
        </mxCell>
        <mxCell id="llWgRNAV1-LR2kNwzqQN-10" value="写入内存" style="whiteSpace=wrap;html=1;rounded=0;" vertex="1" parent="WIyWlLk6GJQsqaUBKTNV-1">
          <mxGeometry x="342" y="561" width="120" height="60" as="geometry" />
        </mxCell>
        <mxCell id="llWgRNAV1-LR2kNwzqQN-15" style="edgeStyle=orthogonalEdgeStyle;rounded=0;orthogonalLoop=1;jettySize=auto;html=1;exitX=0.5;exitY=1;exitDx=0;exitDy=0;entryX=0.5;entryY=0;entryDx=0;entryDy=0;" edge="1" parent="WIyWlLk6GJQsqaUBKTNV-1" source="llWgRNAV1-LR2kNwzqQN-13" target="vRGWxrCANK72iL_Xz8hH-32">
          <mxGeometry relative="1" as="geometry" />
        </mxCell>
        <mxCell id="llWgRNAV1-LR2kNwzqQN-13" value="渲染视图" style="rounded=0;whiteSpace=wrap;html=1;" vertex="1" parent="WIyWlLk6GJQsqaUBKTNV-1">
          <mxGeometry x="543.5" y="379" width="120" height="60" as="geometry" />
        </mxCell>
      </root>
    </mxGraphModel>
  </diagram>
</mxfile>
